<svg width="19" height="19" viewBox="0 0 19 19" fill="none" xmlns="http://www.w3.org/2000/svg">
<path d="M17.8496 13.0156C18.1426 13.0156 18.3867 13.1133 18.582 13.3086C18.7773 13.5039 18.875 13.748 18.875 14.041V17.6543C18.875 18.4681 18.5332 18.875 17.8496 18.875C12.9993 18.875 8.83268 17.1335 5.34961 13.6504C1.86654 10.1673 0.125 6.00065 0.125 1.15039C0.125 0.466797 0.531901 0.125 1.3457 0.125H4.95898C5.25195 0.125 5.49609 0.222656 5.69141 0.417969C5.88672 0.613281 5.98438 0.857422 5.98438 1.15039C5.98438 2.41992 6.17969 3.64062 6.57031 4.8125C6.70052 5.23568 6.61914 5.59375 6.32617 5.88672L4.32422 7.64453C5.82161 10.7695 8.21419 13.1296 11.502 14.7246L13.1133 12.6738C13.3086 12.4785 13.5527 12.3809 13.8457 12.3809C14.0085 12.3809 14.1224 12.3971 14.1875 12.4297C15.3594 12.8203 16.5801 13.0156 17.8496 13.0156Z" fill="white"/>
</svg>
